#!OML:ASF F:\VICON\USERDATA\INSTALL\rory3\rory3.ASF
:FULLY-SPECIFIED
:DEGREES
276
root 1.92926 16.786 7.34878 29.1912 33.2169 5.35274
lowerback 40.6261 2.25239 4.30303
upperback 10.9048 5.14554 2.76181
thorax -7.26188 2.52604 -1.33256
lowerneck -17.1584 -9.13496 -16.2041
upperneck 25.4642 -9.38335 5.91556
head 12.4106 -4.90676 3.39805
rclavicle -9.85972e-014 -4.77083e-015
rhumerus 28.3237 12.7219 -67.1982
rradius 27.0701
rwrist 17.4359
rhand -27.9507 4.4877
rfingers 7.12502
rthumb -1.33833 -25.4879
lclavicle -9.85972e-014 -4.77083e-015
lhumerus -32.2095 -38.7827 101.798
lradius 83.2341
lwrist -11.527
lhand -53.5267 31.3606
lfingers 7.12502
lthumb -25.9702 59.6062
rfemur -67.242 -16.8847 25.7067
rtibia 55.7905
rfoot -12.2138 -0.674954
rtoes 6.01631
lfemur -62.4084 0.483742 -22.2058
ltibia 41.8375
lfoot -2.7989 -12.5044
ltoes -3.77608
277
root 1.9507 16.7477 7.34669 30.0152 33.1825 5.60896
lowerback 40.9814 2.2363 4.34917
upperback 10.9489 5.16384 2.78568
thorax -7.31909 2.53108 -1.34654
lowerneck -17.0894 -9.31657 -16.5044
upperneck 25.0938 -9.59082 6.04894
head 12.3046 -5.00571 3.45528
rclavicle 1.24042e-013 3.26007e-014
rhumerus 29.2245 12.1383 -66.9013
rradius 26.6389
rwrist 18.0754
rhand -28.3933 3.97544
rfingers 7.12502
rthumb -1.76575 -25.997
lclavicle 1.24042e-013 3.26007e-014
lhumerus -32.5846 -39.0193 101.89
lradius 84.0153
lwrist -12.4442
lhand -54.2958 30.9149
lfingers 7.12502
lthumb -26.7064 59.0504
rfemur -68.4373 -17.0377 25.7273
rtibia 56.4324
rfoot -12.3833 -0.548291
rtoes 6.10778
lfemur -63.5665 0.679721 -22.8516
ltibia 42.4877
lfoot -3.07409 -12.9206
ltoes -4.12303
278
root 1.96822 16.7102 7.34446 30.7693 33.1489 6.00537
lowerback 41.4605 2.19464 4.3499
upperback 11.0431 5.13875 2.77274
thorax -7.35779 2.5198 -1.36078
lowerneck -16.9471 -9.47903 -16.7412
upperneck 24.5261 -9.77107 6.07935
head 12.0945 -5.09777 3.46819
rclavicle 1.59028e-014 5.32743e-014
rhumerus 30.1862 11.635 -66.5332
rradius 26.1789
rwrist 18.243
rhand -28.9505 3.70905
rfingers 7.12502
rthumb -2.30394 -26.2583
lclavicle 1.59028e-014 5.32743e-014
lhumerus -32.7958 -39.3362 101.837
lradius 84.9138
lwrist -13.8445
lhand -54.7894 32.5228
lfingers 7.12502
lthumb -27.1787 60.5854
rfemur -69.4394 -17.1957 25.522
rtibia 57.039
rfoot -12.5972 -0.477667
rtoes 6.31122
lfemur -64.4185 0.747566 -23.4624
ltibia 43.0092
lfoot -3.02384 -13.2717
ltoes -2.54789
279
root 1.99226 16.6609 7.33403 31.649 33.0909 6.39188
lowerback 41.7313 2.11244 4.44984
upperback 11.1355 5.08607 2.71799
thorax -7.3229 2.50012 -1.45172
lowerneck -16.8489 -9.64027 -17.0362
upperneck 24.1007 -9.94737 6.18347
head 11.9586 -5.18526 3.51936
rclavicle 6.36111e-014 -4.92986e-014
rhumerus 31.1469 11.1652 -66.0975
rradius 25.7113
rwrist 18.3709
rhand -29.7717 3.99337
rfingers 7.12502
rthumb -3.09701 -25.9639
lclavicle 6.36111e-014 -4.92986e-014
lhumerus -33.0239 -39.5576 101.797
lradius 85.8201
lwrist -15.3222
lhand -55.2003 34.0609
lfingers 7.12502
lthumb -27.5717 62.0614
rfemur -70.681 -17.4495 25.4541
rtibia 57.6741
rfoot -12.6809 -0.305631
rtoes 6.16841
lfemur -65.4368 0.667726 -23.9789
ltibia 43.5297
lfoot -2.88188 -13.4527
ltoes -1.52284
280
root 2.01506 16.6165 7.33018 32.4532 33.0729 6.76107
lowerback 42.0686 2.05264 4.52518
upperback 11.224 5.06134 2.70773
thorax -7.31666 2.49109 -1.49615
lowerneck -16.7474 -9.82349 -17.4088
upperneck 23.7834 -10.1731 6.42889
head 11.8858 -5.28636 3.62818
rclavicle 1.27222e-014 9.62118e-014
rhumerus 32.0446 10.2703 -65.9517
rradius 25.222
rwrist 19.5902
rhand -30.2781 4.35508
rfingers 7.12502
rthumb -3.58602 -25.5945
lclavicle 1.27222e-014 9.62118e-014
lhumerus -33.3788 -39.7602 101.922
lradius 86.682
lwrist -15.9177
lhand -55.955 34.2277
lfingers 7.12502
lthumb -28.2933 62.1108
rfemur -71.7813 -17.7006 25.3883
rtibia 58.2846
rfoot -12.8278 -0.145396
rtoes 6.34735
lfemur -66.3884 0.601333 -24.5348
ltibia 44.0195
lfoot -3.01174 -13.6529
ltoes -1.90771
281
root 2.03748 16.5791 7.33029 32.9744 33.1449 6.70636
lowerback 42.3916 1.99495 4.79588
upperback 11.3298 5.12831 2.82185
thorax -7.27708 2.52169 -1.54176
lowerneck -16.5948 -10.0047 -17.8723
upperneck 23.3882 -10.3875 6.70714
head 11.7816 -5.38665 3.76577
rclavicle 5.40694e-014 -1.01778e-013
rhumerus 32.9714 9.46552 -65.7182
rradius 24.7498
rwrist 21.3312
rhand -30.2654 4.24149
rfingers 7.12502
rthumb -3.57374 -25.7083
lclavicle 5.40694e-014 -1.01778e-013
lhumerus -33.7418 -39.9347 102.126
lradius 87.5709
lwrist -16.1958
lhand -56.6983 35.5638
lfingers 7.12502
lthumb -29.0033 63.327
rfemur -72.7611 -17.8457 25.7408
rtibia 58.8475
rfoot -13.0068 -0.0415178
rtoes 5.87787
lfemur -67.3118 0.546132 -24.5477
ltibia 44.5275
lfoot -3.02038 -13.7377
ltoes -1.12173
282
root 2.05496 16.5432 7.33518 33.5332 33.0957 6.85113
lowerback 42.8392 2.00696 4.83784
upperback 11.3868 5.18963 2.8704
thorax -7.34031 2.54533 -1.54519
lowerneck -16.366 -10.1298 -18.2067
upperneck 22.954 -10.5547 6.91249
head 11.6297 -5.46396 3.86675
rclavicle 1.27222e-014 2.70347e-014
rhumerus 33.8289 9.07634 -65.2096
rradius 24.3266
rwrist 22.2285
rhand -30.4059 4.06532
rfingers 7.12502
rthumb -3.70941 -25.8821
lclavicle 1.27222e-014 2.70347e-014
lhumerus -34.0733 -39.8954 102.359
lradius 88.4362
lwrist -17.1158
lhand -56.4248 36.0329
lfingers 7.12502
lthumb -28.7421 63.8407
rfemur -73.6303 -17.91 25.7607
rtibia 59.3852
rfoot -13.1673 -0.0345233
rtoes 5.71408
lfemur -68.1169 0.58491 -24.87
ltibia 45.0134
lfoot -3.13728 -13.9231
ltoes -0.558521
283
root 2.07696 16.4986 7.33548 34.3231 33.0539 7.24136
lowerback 43.0611 1.94673 4.89112
upperback 11.5043 5.14903 2.85193
thorax -7.26643 2.53284 -1.57549
lowerneck -16.1984 -10.2765 -18.5701
upperneck 22.571 -10.7371 7.1322
head 11.5164 -5.54822 3.97268
rclavicle 9.54166e-015 -6.12257e-014
rhumerus 34.6966 9.21246 -64.2093
rradius 24.0682
rwrist 21.79
rhand -31.3849 3.77807
rfingers 7.12502
rthumb -4.65482 -26.1508
lclavicle 9.54166e-015 -6.12257e-014
lhumerus -34.2426 -39.9078 102.532
lradius 89.2793
lwrist -17.8425
lhand -56.0161 35.6019
lfingers 7.12502
lthumb -28.3516 63.4753
rfemur -74.6788 -18.133 25.6261
rtibia 59.9257
rfoot -13.2268 0.123181
rtoes 5.98612
lfemur -69.03 0.468252 -25.427
ltibia 45.5048
lfoot -3.27081 -14.134
ltoes -0.247216
284
root 2.10093 16.4632 7.33313 34.9857 33.1516 7.36722
lowerback 43.397 1.81212 5.20401
upperback 11.5223 5.13651 2.84959
thorax -7.31292 2.52669 -1.73686
lowerneck -16.1488 -10.41 -18.7657
upperneck 22.2932 -10.8898 7.20977
head 11.4424 -5.62 4.00166
rclavicle 2.22639e-014 -4.77083e-015
rhumerus 35.4528 9.04611 -63.5971
rradius 23.7127
rwrist 22.0737
rhand -32.6448 3.69079
rfingers 7.12502
rthumb -5.87128 -26.2079
lclavicle 2.22639e-014 -4.77083e-015
lhumerus -34.6242 -40.1076 102.683
lradius 89.8958
lwrist -17.6279
lhand -57.2034 36.2658
lfingers 7.12502
lthumb -29.4856 63.945
rfemur -75.7316 -18.3735 25.8177
rtibia 60.4481
rfoot -13.3922 0.332304
rtoes 6.07171
lfemur -69.9797 0.429701 -25.7704
ltibia 45.9972
lfoot -3.28691 -14.3848
ltoes 0.234173
285
root 2.1214 16.4271 7.3345 35.545 33.2237 7.40278
lowerback 43.9293 1.88363 5.30347
upperback 11.4349 5.3243 3.07543
thorax -7.56382 2.59005 -1.64018
lowerneck -15.9832 -10.5908 -19.0185
upperneck 22.0106 -11.0737 7.14232
head 11.3459 -5.727 3.98266
rclavicle -8.5875e-014 1.70955e-014
rhumerus 36.0126 8.62791 -62.9822
rradius 23.3927
rwrist 23.1318
rhand -33.5274 3.63824
rfingers 7.12502
rthumb -6.72332 -26.235
lclavicle -8.5875e-014 1.70955e-014
lhumerus -35.1177 -40.0242 103.037
lradius 90.7387
lwrist -19.0953
lhand -57.1085 43.4127
lfingers 7.12502
lthumb -29.3951 71.1078
rfemur -76.673 -18.4867 26.0148
rtibia 60.9622
rfoot -13.5257 0.499845
rtoes 6.58351
lfemur -70.8796 0.518301 -26.0855
ltibia 46.5224
lfoot -3.346 -14.7537
ltoes 0.147792
286
root 2.14112 16.3888 7.33563 36.1281 33.301 7.57463
lowerback 44.4251 1.83402 5.42799
upperback 11.4353 5.36689 3.19445
thorax -7.69701 2.59891 -1.60516
lowerneck -15.8604 -10.7178 -19.199
upperneck 21.6142 -11.1852 7.03541
head 11.1966 -5.79781 3.94948
rclavicle -8.5875e-014 -8.11041e-014
rhumerus 36.8271 8.39551 -62.316
rradius 23.0329
rwrist 23.915
rhand -34.0685 3.50949
rfingers 7.12502
rthumb -7.24566 -26.3465
lclavicle -8.5875e-014 -8.11041e-014
lhumerus -35.4603 -39.9585 103.311
lradius 91.2086
lwrist -19.4782
lhand -57.5874 43.5917
lfingers 7.12502
lthumb -29.8522 71.2057
rfemur -77.5643 -18.7183 26.1296
rtibia 61.4524
rfoot -13.5964 0.667704
rtoes 6.98128
lfemur -71.7105 0.460319 -26.4277
ltibia 47.0645
lfoot -3.37488 -14.9504
ltoes 1.08072
287
root 2.163 16.3477 7.33575 36.749 33.3904 7.68984
lowerback 44.7813 1.71562 5.68169
upperback 11.4413 5.36312 3.23308
thorax -7.76581 2.59251 -1.69618
lowerneck -15.8051 -10.8575 -19.5085
upperneck 21.3715 -11.3211 7.12655
head 11.1437 -5.86934 4.00387
rclavicle -2.54444e-014 5.12864e-014
rhumerus 37.6268 8.16518 -61.6936
rradius 22.6795
rwrist 24.721
rhand -34.5225 3.59785
rfingers 7.12502
rthumb -7.68386 -26.2426
lclavicle -2.54444e-014 5.12864e-014
lhumerus -35.7067 -39.8861 103.429
lradius 91.7433
lwrist -19.5073
lhand -58.1229 43.364
lfingers 7.12502
lthumb -30.3631 70.8849
rfemur -78.5878 -19.0056 26.4402
rtibia 61.9491
rfoot -13.7343 0.872634
rtoes 6.77413
lfemur -72.6171 0.391493 -26.7206
ltibia 47.6273
lfoot -3.48153 -15.15
ltoes 1.49123
288
root 2.18218 16.3132 7.3409 37.2736 33.3421 7.72655
lowerback 45.1401 1.66544 5.859
upperback 11.4433 5.39538 3.18983
thorax -7.83572 2.60323 -1.85085
lowerneck -15.5868 -10.9401 -19.8371
upperneck 21.0093 -11.4573 7.41644
head 11.0297 -5.92379 4.14089
rclavicle 2.54444e-014 -4.13472e-014
rhumerus 38.2585 7.99841 -61.0819
rradius 22.4733
rwrist 25.4418
rhand -35.2008 3.76821
rfingers 7.12502
rthumb -8.33856 -26.0472
lclavicle 2.54444e-014 -4.13472e-014
lhumerus -35.9321 -39.7319 103.451
lradius 92.3679
lwrist -19.9555
lhand -58.5029 43.7343
lfingers 7.12502
lthumb -30.7255 71.1877
rfemur -79.4685 -19.0824 26.6673
rtibia 62.4182
rfoot -13.881 1.023
rtoes 6.83386
lfemur -73.4571 0.46411 -26.9794
ltibia 48.193
lfoot -3.44546 -15.2924
ltoes 3.0868
